# xmcd CD database file
# Copyright (C) 1995 Ti Kan
#
# Track frame offsets:
#	150
#	3953
#	21194
#	39151
#	57031
#	76637
#	96717
#	116184
#	120168
#	141598
#	158291
#	177452
#	195861
#	220093
#	244987
#	263811
#	284432
#
# Disc length: 3809 seconds
#
# Revision: 1
# Processed by: cddbd v1.4b42PL0 Copyright (c) Steve Scherf et al.
# Submitted via: NotifyCDPlayer(CDDB) 1.60beta5_freedb
#
DISCID=de0edf11
DTITLE=The product G and B - Ghetto blues
DYEAR=1900
DGENRE=
TTITLE0=Morning interlude
TTITLE1=Tired of being broke
TTITLE2=Cluck cluck
TTITLE3=Reap what you sow
TTITLE4=Maria maria
TTITLE5=Freak freak
TTITLE6=Dirty dancing
TTITLE7=Evening Interlude
TTITLE8=Scramble
TTITLE9=Whenever you want it
TTITLE10=Blood is thicker than water
TTITLE11=What U wanna do
TTITLE12=Shorty
TTITLE13=Black rose
TTITLE14=Wish you well
TTITLE15=Fool die
TTITLE16=Outro
EXTD=
EXTT0=
EXTT1=
EXTT2=
EXTT3=
EXTT4=
EXTT5=
EXTT6=
EXTT7=
EXTT8=
EXTT9=
EXTT10=
EXTT11=
EXTT12=
EXTT13=
EXTT14=
EXTT15=
EXTT16=
PLAYORDER=
